<svg xmlns="http://www.w3.org/2000/svg" width="1040" height="650" viewBox="0 0 1040 650">
  <rect width="1040" height="650" rx="20" fill="#EFF6F3"/>
  <rect x="70" y="90" width="420" height="470" rx="16" fill="#0E7C5B"/>
  <rect x="70" y="90" width="420" height="150" rx="16" fill="#0A5F46"/>
  <rect x="110" y="280" width="340" height="22" rx="11" fill="#FFFFFF" opacity="0.9"/>
  <rect x="110" y="318" width="240" height="22" rx="11" fill="#FFFFFF" opacity="0.6"/>
  <rect x="110" y="380" width="160" height="52" rx="12" fill="#F59E0B"/>
  <rect x="286" y="380" width="160" height="52" rx="12" fill="#FFFFFF" opacity="0.85"/>
  <circle cx="830" cy="180" r="90" fill="#F59E0B" opacity="0.9"/>
  <path d="M560 480 L720 330 L840 420 L940 300 L1040 380 L1040 650 L560 650 Z" fill="#0E7C5B" opacity="0.85"/>
  <path d="M560 540 L740 440 L900 520 L1040 460 L1040 650 L560 650 Z" fill="#0A5F46"/>
  <rect x="600" y="120" width="180" height="110" rx="12" fill="#FFFFFF"/>
  <rect x="622" y="142" width="100" height="14" rx="7" fill="#0E7C5B"/>
  <rect x="622" y="164" width="136" height="12" rx="6" fill="#E2E8F0"/>
  <rect x="622" y="184" width="90" height="12" rx="6" fill="#E2E8F0"/>
</svg>
